<?xml version="1.0" encoding="utf-8"?>
<!-- Generator: Adobe Illustrator 24.3.0, SVG Export Plug-In . SVG Version: 6.00 Build 0)  -->
<svg version="1.1" id="Layer_1" xmlns="http://www.w3.org/2000/svg" xmlns:xlink="http://www.w3.org/1999/xlink" x="0px" y="0px"
	 viewBox="0 0 1366 768" style="enable-background:new 0 0 1366 768;" xml:space="preserve">
<style type="text/css">
	.st0{fill:#FFFFFF;}
</style>
<g>
	<path class="st0" d="M299.75,138.38l12.62,1.61l6.18,9.94l-1.07,12.08c0.54,2.33,1.03,4.34,1.48,6.04
		c0.44,1.7,1.21,7.21,2.28,16.52l2.15,6.45v9.94l6.18,6.18v3.76l8.86,69.82h2.69l3.76,4.83h-8.59c3.4,9.85,6.26,19.97,8.59,30.35
		l8.86,3.22l8.33-6.98l8.86,3.76h3.76l1.07,1.07l1.61-1.07c0.71,0.72,4.38,1.44,11.01,2.15l13.7-9.94l21.48,1.34l1.07-4.03
		l13.7,4.03l23.9-6.18l4.83-4.83c1.79-1.97,4.12-3.4,6.98-4.3l10.74-3.49l4.83,7.79h8.86l3.76,11.01
		c-3.4,6.98-6.71,12.08-9.94,15.31l-2.69-1.61l-21.48,22.56l-11.01,7.52H430.8l-14.77,4.03l-12.89-2.95l-25.78,11.01l-1.61-1.07
		l-15.84,6.71l3.76,58.28h1.07v2.69l-3.76,4.03l3.76,3.22l1.07,12.62l2.69,2.69l-2.69,5.1l5.1,6.98l2.69,21.48l3.76,5.1l3.76-1.34
		l1.34,3.49l-0.54,3.76h-3.49l1.07,31.42c-3.22,5.37-6.54,9.94-9.94,13.7l-9.67,1.07l-2.95,7.79l-6.98-1.07l1.07,6.98l-4.3,5.37
		c-1.25,1.61-6.09,5.01-14.5,10.21l-9.4-7.79c-1.07-0.72-2.33-2.69-3.76-5.91l-3.22-7.79v-15.04l-5.1-23.63l-2.15-3.76l2.15-15.31
		l-2.15-13.16l5.1-10.47l-6.18-22.02c1.61-3.4,2.69-7.96,3.22-13.7l-2.15-4.03l2.15-11.55c0-3.22-1.07-9.84-3.22-19.87l4.83-10.74
		l-1.61-17.72l-8.06-4.83l-5.64,2.15v-2.15l-12.08,1.07l1.07,7.52l-5.91-1.61l-6.71,1.61l-1.61,1.07
		c-8.24,4.12-16.29,6.18-24.17,6.18l-7.79-1.07l-15.84,4.83l-16.65,2.95l-1.07,6.98l-11.55-4.83v4.83h-2.15l-7.79,7.79H173.8
		l4.03,11.01l-10.47-2.15l-16.11,9.67l-3.76,4.03l-8.86-2.69l-9.94,7.52h-9.67v7.25l-9.94,1.61l-4.03,8.86l-4.83,4.83l-6.71,17.19
		l1.88,1.61c-0.54,1.61-3.49,4.93-8.86,9.94l-1.07,14.77l-7.79,5.91l1.07,2.95h-3.76v5.91l-8.86,6.71v2.15
		c-1.25,1.25-3.31,4.57-6.18,9.94h-2.15l-6.45,18.8l-2.42-3.49V549l-6.45,5.1l-1.61,5.1c-0.36,1.79-2.24,4.3-5.64,7.52l-9.94-3.76
		c-1.07-3.05-1.97-4.75-2.69-5.1l1.07-3.76v-2.15l1.61-5.1c-1.97-3.4-3.22-10.21-3.76-20.41l3.76,1.88l-2.69-2.95v-3.76l1.07-1.07
		l-2.15-6.71l2.15-4.83l-2.69-6.18l1.61-2.15c-0.36-3.94-0.71-9.4-1.07-16.38l5.1-4.03L41.4,491.8h8.86l31.15-38.94l-4.83-3.22
		l1.07-5.64l-9.94,4.03l-1.61,2.69l-2.15-1.07l-6.18,3.22c-1.79,1.07-5.64,1.97-11.55,2.69L37.37,444
		c4.3-10.92,8.14-17.09,11.55-18.53c0-1.97,2.95-6,8.86-12.08l6.18-1.88l-1.07-1.07l9.94-13.7h1.07l23.63-4.83l2.69,4.83l4.83-1.07
		l1.07,1.07h2.95l2.15-4.83l7.79,1.07v-2.15l5.91-5.1l-3.76-6.45l4.83-7.25l12.62-4.83l-1.07-2.95l1.61-4.03
		c0.36-1.25,3.13-4.12,8.33-8.59c3.4-13.6,7.07-21.48,11.01-23.63h-2.15l12.62-15.84l1.07,1.07l18.8-29.81h-1.07l6.98-10.47h1.61
		l15.04-27.39h2.15l12.62-20.95l3.76-1.07l6.18-11.55c0.71-0.71,2.32-4.74,4.83-12.08l8.86-6.71v-1.07l4.83-12.62l2.95-1.07
		l1.07-9.94h3.76l1.07-3.76h1.07l2.95-6.18l21.22-12.62L299.75,138.38z M257.59,218.68l-8.86,2.15v3.76l-8.86,8.86h-2.69
		l-12.08,17.46h-1.07l-8.86,17.19v2.69l-3.22,4.83c-1.07,1.97-2.6,3.49-4.57,4.57l-7.52,4.3l-3.49,8.86
		c-1.07,2.51-1.97,8.77-2.69,18.8l-4.83-1.07l-1.07,6.98l-9.94,7.79l1.07,1.07v6.18l-8.86,3.76l-6.98,19.6
		c-1.25,3.76-2.6,6.71-4.03,8.86l-6.45,8.86l1.07,1.61v1.07l2.69,1.34h15.84l6.71,3.76l20.95-12.62l17.46-1.07l1.07,3.76l1.61-6.71
		h9.94l17.72-4.83l4.83,1.61l11.01-3.76v-1.07l16.65-5.64v-1.07l20.68-4.83v-6.18l-6.98-6.45v-20.95l5.91-13.7l-5.91-4.03
		l-7.79,4.03l-9.94-13.96l13.96-1.07v-3.76l-16.65-3.76l1.61-4.03l-4.83-5.91l3.22-5.1l-8.86-13.7l1.61-2.69l2.42-1.07l-4.03-4.03
		l-3.22-18.53L257.59,218.68z"/>
	<path class="st0" d="M544.67,544.17l-3.49-6.18l-22.56-7.52L506,516.77l-3.76-15.04l-6.18-4.83l-7.52-17.72v-13.7l3.76-5.37
		l-1.61-6.18l1.61-6.98l7.79-15.04l-4.03-11.55l4.03-2.15l4.83-13.7l-1.61-14.77l8.86-4.03v-9.94h4.83l2.69-11.55h1.34l2.69-3.76
		l-2.69-2.15h2.69l1.07-3.49v-12.08l16.38-12.08l-1.61-2.69l11.55-15.84h1.07l4.03-7.79l6.98-2.15v-5.1h2.69l1.34-6.45l12.62-14.77
		l2.15-1.34l1.61-2.69c3.94-3.94,6-6.26,6.18-6.98l2.69-1.88l4.83-8.59l18.8-17.19l8.86-10.74c1.43-1.97,3.22-3.58,5.37-4.83
		l8.33-4.83l1.07-3.76l13.7-4.83l-1.07-2.42c4.12-3.58,7.79-5.73,11.01-6.45v-1.07l3.76-6.18l9.94-3.76
		c8.77-7.7,15.4-12.26,19.87-13.7l17.46-6.18l5.1,2.15l5.91-2.15h1.88l6.98,2.15l1.61,6.71l3.49-1.61l1.61,1.61v3.22l3.76,10.47
		l2.15,39.75h-1.07l1.07,1.07l-5.91,27.39l-1.61-3.22l-2.42,13.7l1.07,5.64l-4.83,6.45h-1.07l-0.54,4.3l2.15,7.79l-2.69,9.4v2.15
		h-6.71l-4.83,12.62v1.07h-1.07l-13.7,16.65l-5.1,2.15l-2.69,6.71l-5.1-2.95l1.34,8.86l-2.42,3.76h-4.83l-1.07-2.69l-11.55-4.83
		l-5.1-11.01l1.07-8.86l1.88-1.07l17.46-47.27l12.08-14.23l2.69-16.11l-3.76-28.47l-14.23-4.03l-11.01,1.07l-7.25,4.03h-1.07
		l-5.37,7.52l-19.87,12.35l-7.79-1.34l-5.91,7.79l1.07,1.07v1.07l-6.18,1.61l-1.07,5.1c-4.83,3.76-10.65,8.69-17.46,14.77
		c-0.72,1.44-4.03,5.64-9.94,12.62v1.07l-6.18,4.03v2.15l-6.45,2.69v3.76h-1.07l-12.62,18.8l1.61,2.15l-15.58,30.35l-5.91,2.15v2.69
		h3.22l-1.61,12.62l-3.76,7.25l-5.1,22.56l-5.37,4.83c-2.15,19.87-3.49,30.71-4.03,32.5l7.25,5.1l-1.61,18.53l3.76,17.72
		c5.19,7.88,8.14,15.22,8.86,22.02l7.79-4.03l8.06,9.4l13.96,12.08c9.31,2.15,17.19,3.49,23.63,4.03l12.08-6.71l3.76,5.1l23.63-6.18
		l6.71,3.22l1.07-2.15l35.18-10.47h4.83l18.8-12.62l16.92-4.83l12.62-5.1l16.65-11.55h3.76l6.18-4.83l24.71-24.71l7.79-5.1
		l-4.03-13.7l-15.84-7.79l1.07-5.91l57.2-25.24l1.61-2.42c6.26-1.79,9.94-3.4,11.01-4.83h3.76l4.03,9.94h3.22l-3.22,14.77h-4.03
		l-4.83,9.94v-2.15l-2.69,2.15l-2.95,9.4l-12.08,12.08l-1.07-2.69c-5.73,8.42-9.22,12.98-10.47,13.7v3.76l-12.08,7.79
		c-1.25,1.61-2.51,2.87-3.76,3.76h-5.91l-1.88,3.22c-3.58,1.44-6.45,4.93-8.59,10.47l-17.19,8.33l-1.61,1.61l-1.07-1.61
		c-3.4,1.61-6.36,4.21-8.86,7.79h-2.15l-3.76,4.83l-2.95-1.07l-1.07,5.1l-9.94,1.07l-5.1,5.1c-1.61,1.61-6.09,4.12-13.43,7.52v1.07
		l-4.03-1.07c-2.33,0.36-5.2,1.97-8.59,4.83l-1.07,6.18l-5.1-1.07l-4.83,2.69v1.07h-9.94c-4.83,5.01-9.71,8.51-14.64,10.47
		c-4.93,1.97-14.37,4.3-28.33,6.98v3.49l-12.08-1.07v4.83l-6.71-1.07l-2.15,1.07v1.61h-7.52l-1.34,5.1l-14.77,1.61L544.67,544.17z"
		/>
	<path class="st0" d="M1036.93,180.54l3.22,1.61l7.79,12.08l6.18,24.44l-5.64-2.42c6.8,15.22,10.47,32.32,11.01,51.29l6.18,6.98
		l-2.95,17.19l4.03,2.69l2.69,17.72l3.76,3.76v17.19l5.1,7.52l-3.49,7.79c1.25,3.05,3.67,7.07,7.25,12.08v12.62l-2.15,6.18
		l10.47,6.98l4.83,12.08l6.18-1.07c1.79-0.36,5.28-2.15,10.47-5.37h4.83v-2.15l11.55-17.72h2.15l-1.07-3.76l19.87-21.48l4.83-9.94
		c1.61,0.36,6.62-3.31,15.04-11.01l2.69,1.07l0.81-3.49c0.18-0.89,1.83-3.13,4.97-6.71c3.13-3.58,5.14-5.91,6.04-6.98
		c4.47-5.55,9.67-8.95,15.58-10.21l2.15-8.86l-3.22-9.94l1.07-7.79l5.1-2.15l-2.95-5.91c5.91-4.12,9.4-7.07,10.47-8.86l1.07-10.47
		l4.03-3.22l2.15-7.79h2.69v-7.79l6.18-5.91c5.73-2.69,13.25-6.35,22.56-11.01c5.91-5.19,11.72-9.04,17.46-11.55l7.25,12.62
		l3.76-2.69l6.71,2.69l-2.95,4.83l5.1,21.48l-8.86,12.08h-5.91l-4.03,11.55l-5.91,9.94l-1.61,13.7l-2.42,12.62l2.42,15.04
		l-6.18,6.98l-0.81,7.25c-0.18,2.15-1.52,5.28-4.03,9.4v3.76l1.07,7.25l-1.07,4.83l4.83,29.27l-2.15,5.91l1.07,12.62l15.84,42.43
		l30.35,58.81l2.15,12.08v1.61l1.61,6.18h7.25l4.83-4.83v2.15l9.94-6.18l1.61,6.18l6.18,4.83l-6.18,15.31l-12.62,7.25l-3.76,7.79
		l-19.87,5.91l-5.91,8.86l-12.62,4.83l-2.95-1.07l-5.91-12.62l-2.69,2.95l-6.18-1.34l-4.83,5.1l-6.18-1.61l-2.69-3.49
		c2.5-3.4,5.1-7.61,7.79-12.62l-13.96-37.33l-4.83-3.76l-11.55-28.74l-5.1-20.41l-13.7-32.23v-3.49l-4.83-16.38l-2.69-5.37
		c-0.72-1.61-1.7-6-2.95-13.16l-8.06-50.22l-32.5,41.36l-23.63,36.25l-2.69,7.52l-6.18,3.49l6.18,10.47l-1.34,9.67l4.03,2.42
		l-6.18,7.52c-1.07,2.69-4.57,7.25-10.47,13.7v5.1c-4.3,5.01-7.61,9.22-9.94,12.62l-5.91-3.76l-9.94,11.01l-6.18,4.57
		c-1.79,1.25-3.94,3.72-6.45,7.39c-2.51,3.67-4.12,6.4-4.83,8.19l-7.79,1.34c-3.05-5.01-5.82-11.82-8.33-20.41l2.69-3.49l-2.69-6.45
		v-19.87l1.07-8.86l-3.76-8.59l1.07-1.07l-3.76-8.86l-5.1-36.25l-3.76-8.86l1.07-9.94c-0.54-1.25-0.99-2.5-1.34-3.76l-2.69-7.25
		c-0.54-1.25-1.48-2.95-2.82-5.1c-1.34-2.15-3.09-4.65-5.24-7.52l-9.94,2.69l-3.76,7.25v7.52l-15.04,48.61l-7.52,10.47l-8.86,29.54
		v2.69l-8.86,15.04l5.64,6.98l-4.3,8.33c-1.61,2.87-3.67,5.28-6.18,7.25l-1.07,8.59l-8.86,5.1l1.61,3.22l-2.69,2.69l1.07,9.94
		l-8.86,9.94l1.61,6.71c-3.58,3.4-5.73,6.26-6.45,8.59l-6.18,3.49l-5.91,12.62l-16.65,7.79l-9.94,5.91l-3.76,7.79l-15.84,6.98
		l-6.71-2.15l-5.91,1.07l-6.18-3.76l3.22-3.76l13.7-2.42l-3.22-16.38l3.22-1.07l2.95-5.1l-4.03-3.76l1.07-9.94
		c11.82-4.48,18.08-8.69,18.8-12.62c8.59-4.65,16.65-7.96,24.17-9.94l3.49-12.62l3.76-6.98l2.15-12.35
		c0.36-1.79,1.16-3.58,2.42-5.37l5.37-7.79l-2.15-4.83l3.76-14.77l4.83-4.03c0.36-4.12,2.42-10.29,6.18-18.53l-2.69-5.1l5.37-8.86
		v-3.76l2.15-3.22l-1.07-5.1l3.76-7.52l8.33-37.6l4.03-2.69l2.69-8.86l-4.03-2.15l4.03-9.94l-1.07-16.38l1.07-3.76l-1.07-11.01
		l4.83-8.86l-7.79-14.77l4.03-11.55l-4.03-7.25c1.97-7.34,3.67-12.26,5.1-14.77l-6.18-13.96c-5.55,1.79-11.73,5.46-18.53,11.01
		l-2.95-1.07l-15.84,9.94l-8.86,7.25l-14.77,8.86l-11.55,1.61l-8.86-20.41l4.03-1.07l-1.34-4.03c6.26-3.04,11.28-6.62,15.04-10.74
		h2.69c1.97-1.97,8.59-6.62,19.87-13.96v-2.69h8.86L962,221.9h3.49l2.69-5.1l1.07,2.95l2.69-4.03h8.86l27.66-16.38
		c4.65-4.12,7.61-6.62,8.86-7.52l3.22-2.42c1.07-0.71,4.3-1.43,9.67-2.15L1036.93,180.54z"/>
</g>
</svg>
